# xmcd
#
# Track frame offsets:
#   150
#   14535
#   27825
#   36948
#   48403
#   60208
#   74268
#   88648
#   101440
#   116990
#   132690
#   143325
#   158378
#   172053
#   182925
#   200728
#   213420
#   226270
#   239730
#
# Disc length: 3355 seconds
#
# Revision: 0
# Processed by: cddbd v1.5.1PL2 Copyright (c) Steve Scherf et al.
# Submitted via: uFREEDB 1.6.2
#
DISCID=0f0d1913
DTITLE=OLD SONGS COLLECT 9 - OLD SONGS COLLECT 9
DYEAR=1970
DGENRE=UnClassifiable
TTITLE0=Are you lonesome tonight
TTITLE1=Dear heary
TTITLE2=A summer place
TTITLE3=Somewhere my love
TTITLE4=Romeo and Juliet - A time for us
TTITLE5=The sound of silence
TTITLE6=Scarborough fair
TTITLE7=You don't have to say you love me
TTITLE8=Too young
TTITLE9=Mona Lisa
TTITLE10=Breaking up is hard to do
TTITLE11=And I love you so
TTITLE12=Daddy's home
TTITLE13=No more
TTITLE14=It's to late
TTITLE15=Days of wine and roses
TTITLE16=Blue velvet
TTITLE17=Whispering pines
TTITLE18=The twelfth of never
EXTD=
EXTT0=
EXTT1=
EXTT2=
EXTT3=
EXTT4=
EXTT5=
EXTT6=
EXTT7=
EXTT8=
EXTT9=
EXTT10=
EXTT11=
EXTT12=
EXTT13=
EXTT14=
EXTT15=
EXTT16=
EXTT17=
EXTT18=
PLAYORDER=
